<?xml version="1.0" standalone="no"?>
<!DOCTYPE svg PUBLIC "-//W3C//DTD SVG 20010904//EN"
 "http://www.w3.org/TR/2001/REC-SVG-20010904/DTD/svg10.dtd">
<svg version="1.0" xmlns="http://www.w3.org/2000/svg"
 width="679.000000pt" height="452.000000pt" viewBox="0 0 679.000000 452.000000"
 preserveAspectRatio="xMidYMid meet">
<metadata>
Created by potrace 1.16, written by Peter Selinger 2001-2019
</metadata>
<g transform="translate(0.000000,452.000000) scale(0.100000,-0.100000)"
fill="#000000" stroke="none">
<path d="M4841 3999 c-28 -22 -48 -46 -44 -51 3 -6 1 -8 -4 -5 -14 9 -65 -32
-57 -44 3 -5 0 -8 -7 -7 -7 2 -13 -2 -14 -9 0 -6 -4 -15 -9 -20 -5 -5 -6 -3
-2 5 4 6 3 12 -2 12 -11 0 -64 -55 -64 -67 0 -4 -5 -7 -10 -5 -6 1 -17 -3 -24
-9 -19 -16 -10 -60 22 -111 22 -34 72 -71 91 -66 8 2 49 -6 115 -23 43 -11 78
-59 78 -106 0 -46 22 -58 49 -29 22 23 23 29 16 138 -12 199 -41 419 -56 429
-21 13 -22 12 -78 -32z"/>
<path d="M2690 3871 l-46 -49 -69 2 c-61 1 -73 5 -96 28 -39 39 -97 54 -153
38 -48 -13 -72 -32 -61 -49 3 -6 0 -8 -8 -5 -23 9 -32 -16 -32 -91 0 -70 0
-70 -35 -87 -53 -26 -80 -63 -79 -106 1 -67 10 -77 68 -77 46 0 56 -4 78 -30
24 -27 25 -34 19 -105 -3 -41 -9 -154 -13 -251 l-6 -176 44 -27 c74 -44 250
-109 298 -110 l45 -1 23 65 c13 36 35 107 48 158 28 106 23 137 -22 148 -24 6
-129 -10 -210 -32 -17 -5 -30 2 -53 24 -37 38 -38 65 -10 253 28 182 26 175
75 199 61 29 120 28 184 -4 71 -37 155 -51 210 -36 52 14 77 51 87 129 18 141
-60 241 -188 241 -49 0 -54 -2 -98 -49z"/>
<path d="M4876 3458 c-10 -6 -56 -13 -101 -16 l-83 -5 -7 -34 c-9 -51 -98
-377 -146 -536 l-41 -137 55 -93 c30 -50 62 -106 71 -124 12 -24 21 -31 34
-26 14 6 15 4 5 -8 -10 -13 -7 -29 16 -85 16 -38 35 -97 42 -131 10 -46 18
-63 32 -67 10 -2 16 -10 12 -15 -3 -6 -11 -8 -17 -5 -8 5 -9 -7 -5 -41 4 -26
7 -68 7 -93 0 -58 11 -46 40 43 13 39 25 76 28 83 2 7 -1 12 -8 10 -7 -2 -15
3 -18 11 -3 10 1 13 15 9 19 -5 24 7 57 141 30 122 49 219 80 409 3 19 1 20
-12 10 -13 -11 -15 -10 -9 6 6 14 -4 31 -39 68 -91 97 -131 242 -100 366 21
87 48 140 98 197 35 40 39 48 27 60 -10 10 -19 11 -33 3z m34 -738 c0 -5 -5
-10 -11 -10 -5 0 -7 5 -4 10 3 6 8 10 11 10 2 0 4 -4 4 -10z m-35 -49 c-3 -6
-11 -11 -17 -11 -6 0 -6 6 2 15 14 17 26 13 15 -4z m-35 -41 c0 -5 -4 -10 -10
-10 -5 0 -10 5 -10 10 0 6 5 10 10 10 6 0 10 -4 10 -10z m50 -24 c0 -2 -8 -10
-17 -17 -16 -13 -17 -12 -4 4 13 16 21 21 21 13z m-90 -16 c0 -5 -4 -10 -10
-10 -5 0 -10 5 -10 10 0 6 5 10 10 10 6 0 10 -4 10 -10z m-45 -39 c-3 -6 -11
-11 -17 -11 -6 0 -6 6 2 15 14 17 26 13 15 -4z m-35 -30 c0 -5 -7 -11 -15 -15
-15 -5 -20 5 -8 17 9 10 23 9 23 -2z"/>
<path d="M4174 3388 l-71 -73 21 -32 c12 -18 56 -83 99 -145 43 -62 120 -175
170 -250 l92 -137 13 37 c31 88 143 490 171 613 l8 36 -196 6 c-108 4 -205 9
-216 12 -15 5 -37 -11 -91 -67z"/>
<path d="M3995 3084 c-22 -7 -56 -13 -76 -13 -32 -1 -43 -9 -105 -83 -70 -83
-264 -339 -264 -348 0 -4 28 -12 63 -19 98 -20 235 -79 317 -137 73 -51 230
-206 230 -228 0 -6 9 -22 21 -36 l20 -25 -15 40 c-47 125 -74 292 -86 520 -6
120 -15 192 -30 244 -29 101 -27 100 -75 85z m-326 -358 c-3 -3 -11 5 -18 17
-13 21 -12 21 5 5 10 -10 16 -20 13 -22z"/>
<path d="M2778 2795 c-3 -3 -3 -25 -1 -49 11 -92 -28 -224 -91 -309 -30 -41
-127 -103 -191 -122 -190 -55 -365 -28 -478 74 -77 69 -147 206 -162 319 -4
28 -10 52 -13 52 -20 -1 -119 -59 -112 -66 4 -5 20 -47 34 -93 102 -326 60
-624 -119 -834 l-55 -66 14 -66 c8 -36 16 -69 19 -72 10 -9 102 64 156 123 65
70 116 157 146 248 27 82 48 251 39 313 -3 24 -4 43 -1 43 3 0 28 -16 57 -35
143 -96 395 -106 565 -22 58 29 140 93 171 135 l28 36 13 -90 c39 -271 122
-456 268 -600 l82 -81 -8 -99 c-4 -54 -10 -126 -13 -159 -3 -33 -10 -109 -16
-170 -10 -113 -12 -188 -3 -150 6 27 196 210 298 287 17 12 32 26 33 30 2 5
10 8 17 8 7 0 15 4 17 8 2 4 25 23 53 42 27 19 54 39 60 43 5 4 49 33 97 64
48 31 85 59 83 63 -2 4 -34 24 -70 45 -36 21 -65 44 -65 51 0 7 10 38 22 69
l22 57 38 -6 c68 -11 72 -5 121 201 87 362 83 340 64 361 -14 16 -15 24 -6 51
15 41 2 55 -96 104 -85 43 -179 68 -260 70 l-60 2 -3 -68 c-2 -49 -8 -73 -21
-86 -11 -11 -25 -52 -34 -102 -16 -81 -40 -195 -72 -343 -18 -84 -7 -111 50
-122 36 -6 36 -7 33 -53 l-3 -46 -50 -12 c-27 -6 -85 -12 -128 -12 -92 -1
-115 11 -176 99 -111 158 -160 358 -168 694 l-6 208 -31 13 c-45 19 -81 27
-88 20z m903 -380 c105 -19 196 -38 201 -41 12 -7 4 -77 -17 -163 -8 -31 -30
-123 -50 -206 -20 -82 -43 -156 -50 -164 -14 -15 -10 -15 -260 35 -77 15 -144
32 -148 38 -11 16 -2 75 48 310 39 188 52 225 77 226 4 0 93 -16 199 -35z"/>
<path d="M3585 2289 c-111 -26 -150 -163 -69 -244 55 -55 135 -59 201 -9 18
14 33 29 33 33 0 21 -33 18 -66 -4 -43 -29 -64 -31 -109 -10 -99 48 -65 195
45 195 29 0 42 5 50 20 8 16 8 20 -4 20 -8 0 -20 2 -28 4 -7 2 -31 0 -53 -5z"/>
<path d="M3603 2232 c-12 -2 -34 -17 -49 -34 -70 -84 50 -186 127 -109 31 32
36 61 16 100 -14 28 -61 49 -94 43z m50 -23 c29 -15 37 -29 37 -59 -1 -50 -49
-80 -89 -55 -10 5 -12 4 -7 -3 5 -8 2 -10 -9 -6 -41 16 -47 83 -9 113 30 24
46 26 77 10z"/>
<path d="M4108 1652 c-43 -15 -69 -31 -73 -43 -4 -10 -11 -19 -16 -19 -13 0
-11 -47 2 -56 7 -4 8 -9 1 -13 -5 -3 0 -13 12 -23 30 -22 53 -9 35 20 -7 12
-10 25 -6 29 5 4 12 1 17 -6 6 -11 9 -9 12 9 2 17 14 27 42 37 65 22 80 43 54
74 -12 14 -21 13 -80 -9z"/>
<path d="M4784 1558 c-4 -7 -4 -10 1 -6 4 4 15 2 24 -5 14 -11 14 -10 2 6 -16
20 -18 21 -27 5z"/>
<path d="M3825 1420 c-3 -5 -1 -10 4 -10 6 0 11 5 11 10 0 6 -2 10 -4 10 -3 0
-8 -4 -11 -10z"/>
<path d="M3875 1310 c-3 -6 1 -7 9 -4 18 7 21 14 7 14 -6 0 -13 -4 -16 -10z"/>
<path d="M4200 1186 c0 -2 8 -10 18 -17 15 -13 16 -12 3 4 -13 16 -21 21 -21
13z"/>
<path d="M3826 1117 c3 -10 9 -15 12 -12 3 3 0 11 -7 18 -10 9 -11 8 -5 -6z"/>
<path d="M3775 1091 c-6 -11 9 -23 19 -14 9 9 7 23 -3 23 -6 0 -12 -4 -16 -9z"/>
<path d="M4900 780 c-9 -6 -10 -10 -3 -10 6 0 15 5 18 10 8 12 4 12 -15 0z"/>
<path d="M4734 664 c-18 -14 -18 -15 4 -4 12 6 22 13 22 15 0 8 -5 6 -26 -11z"/>
<path d="M3427 513 c-13 -3 -16 -11 -11 -31 11 -47 34 -112 51 -145 l16 -32
13 30 c23 53 13 140 -16 140 -8 0 -16 10 -18 23 -2 12 -6 21 -10 21 -4 -1 -15
-3 -25 -6z"/>
<path d="M4288 495 c-12 -14 -28 -25 -35 -25 -7 0 -13 -11 -13 -25 0 -18 5
-25 20 -25 25 0 180 69 180 80 0 13 -29 20 -81 20 -40 0 -53 -5 -71 -25z"/>
</g>
</svg>
